<svg width="24" height="24" viewBox="0 0 24 24" fill="none" xmlns="http://www.w3.org/2000/svg">
<path d="M4.00465 4.26C2.74744 5.532 2.74744 7.566 2.74744 11.64V12.36C2.74744 16.428 2.74744 18.462 4.00465 19.74C5.27385 21 7.30336 21 11.3684 21H12.0868C16.1458 21 18.1753 21 19.4505 19.74C20.7077 18.468 20.7077 16.434 20.7077 12.36V11.64C20.7077 7.572 20.7077 5.538 19.4505 4.26C18.1813 3 16.1518 3 12.0868 3H11.3684C7.30934 3 5.27983 3 4.00465 4.26ZM5.77673 8.478H7.83618C7.90203 11.91 9.41069 13.362 10.608 13.662V8.478H12.5418V11.436C13.7212 11.31 14.9664 9.96 15.3855 8.472H17.3132C17.1561 9.24228 16.8421 9.9718 16.3909 10.615C15.9398 11.2581 15.3611 11.8011 14.691 12.21C15.4388 12.5829 16.0992 13.1104 16.6286 13.7579C17.158 14.4053 17.5443 15.1579 17.7622 15.966H15.6369C15.1819 14.544 14.0444 13.44 12.5418 13.29V15.966H12.3023C8.20735 15.966 5.87252 13.158 5.77673 8.478Z" fill="#41A2D0"/>
</svg>
