<svg width="25" height="24" viewBox="0 0 25 24" fill="none" xmlns="http://www.w3.org/2000/svg">
<g clip-path="url(#clip0_1565_155)">
<path d="M12.5785 0C9.40363 0 6.356 1.26506 4.11284 3.51469C1.86737 5.76521 0.605602 8.81734 0.60498 12C0.60498 15.1813 1.86781 18.2357 4.11284 20.4853C6.356 22.7349 9.40363 24 12.5785 24C15.7533 24 18.801 22.7349 21.0441 20.4853C23.2892 18.2357 24.552 15.1813 24.552 12C24.552 8.81869 23.2892 5.76431 21.0441 3.51469C18.801 1.26506 15.7533 0 12.5785 0Z" fill="url(#paint0_linear_1565_155)"/>
<path d="M6.0252 11.873C9.51623 10.349 11.8436 9.34424 13.0073 8.8588C16.3336 7.47261 17.024 7.23186 17.4749 7.2237C17.574 7.22211 17.7948 7.24667 17.9388 7.36339C18.0586 7.46183 18.0922 7.59495 18.1091 7.68842C18.1241 7.7818 18.1446 7.99461 18.1278 8.16074C17.9482 10.0582 17.168 14.6629 16.7714 16.7882C16.6049 17.6874 16.2738 17.9889 15.9539 18.0184C15.2579 18.0825 14.7303 17.5579 14.0568 17.1155C13.0035 16.4231 12.4086 15.9922 11.3852 15.3167C10.2028 14.5359 10.9699 14.1067 11.6434 13.4055C11.8193 13.2219 14.8837 10.4291 14.9417 10.1758C14.9492 10.1441 14.9567 10.026 14.8856 9.96373C14.8164 9.9013 14.7135 9.92267 14.6386 9.93955C14.532 9.96355 12.8501 11.0788 9.58732 13.2851C9.11025 13.614 8.67808 13.7743 8.28894 13.7659C7.86239 13.7567 7.03921 13.5236 6.42744 13.3245C5.67909 13.0802 5.08229 12.951 5.13467 12.536C5.16087 12.32 5.45833 12.099 6.0252 11.873Z" fill="white"/>
</g>
<defs>
<linearGradient id="paint0_linear_1565_155" x1="1197.96" y1="0" x2="1197.96" y2="2400" gradientUnits="userSpaceOnUse">
<stop stop-color="#2AABEE"/>
<stop offset="1" stop-color="#229ED9"/>
</linearGradient>
<clipPath id="clip0_1565_155">
<rect width="23.9294" height="24" fill="white" transform="translate(0.905273)"/>
</clipPath>
</defs>
</svg>
