<svg width="25" height="24" viewBox="0 0 25 24" fill="none" xmlns="http://www.w3.org/2000/svg">
<g clip-path="url(#clip0_1565_158)">
<path d="M1.06947 11.8563C1.06891 13.8728 1.5986 15.8417 2.6058 17.5771L0.973145 23.5066L7.07359 21.9156C8.76089 22.8292 10.6514 23.308 12.5725 23.3081H12.5776C18.9196 23.3081 24.0821 18.1748 24.0848 11.8653C24.0861 8.80792 22.8901 5.93295 20.7173 3.76997C18.5449 1.60718 15.6556 0.415458 12.5771 0.414062C6.23435 0.414062 1.07218 5.54709 1.06956 11.8563" fill="url(#paint0_linear_1565_158)"/>
<path d="M0.657683 11.8527C0.657028 13.9417 1.20571 15.981 2.24882 17.7786L0.557617 23.9207L6.87681 22.2726C8.61795 23.2168 10.5783 23.7147 12.5731 23.7154H12.5782C19.1477 23.7154 24.4957 18.3975 24.4985 11.8621C24.4997 8.69488 23.2607 5.71656 21.0103 3.47609C18.7596 1.23591 15.7669 0.00130233 12.5782 0C6.00754 0 0.660301 5.31721 0.657683 11.8527ZM4.42099 17.469L4.18504 17.0965C3.19318 15.5277 2.66966 13.7149 2.6704 11.8534C2.67246 6.4213 7.11687 2.00186 12.5819 2.00186C15.2285 2.00298 17.7158 3.02921 19.5865 4.89116C21.4572 6.7533 22.4866 9.22865 22.4859 11.8614C22.4835 17.2935 18.039 21.7135 12.5782 21.7135H12.5743C10.7962 21.7126 9.05235 21.2376 7.53154 20.34L7.16962 20.1265L3.41968 21.1045L4.42099 17.469Z" fill="url(#paint1_linear_1565_158)"/>
<path d="M9.59957 6.89771C9.37643 6.4044 9.14161 6.39445 8.92941 6.3858C8.75565 6.37836 8.55702 6.37892 8.35857 6.37892C8.15993 6.37892 7.8372 6.45324 7.5644 6.74952C7.29133 7.04608 6.52185 7.76273 6.52185 9.22031C6.52185 10.678 7.58919 12.0866 7.73798 12.2845C7.88695 12.482 9.79848 15.5689 12.8259 16.7564C15.3419 17.7433 15.8539 17.547 16.4 17.4975C16.9462 17.4482 18.1623 16.7811 18.4104 16.0892C18.6587 15.3975 18.6587 14.8046 18.5842 14.6807C18.5098 14.5572 18.3112 14.4831 18.0133 14.335C17.7154 14.1868 16.251 13.4701 15.978 13.3712C15.705 13.2724 15.5064 13.2231 15.3078 13.5198C15.1092 13.8159 14.5388 14.4831 14.3649 14.6807C14.1913 14.8787 14.0174 14.9034 13.7197 14.7552C13.4216 14.6065 12.4624 14.2941 11.3243 13.2849C10.4389 12.4996 9.84113 11.5298 9.66737 11.2331C9.49361 10.937 9.64876 10.7764 9.79811 10.6288C9.93194 10.496 10.0961 10.2828 10.2451 10.1099C10.3936 9.93687 10.4432 9.81343 10.5425 9.61585C10.6419 9.41808 10.5922 9.24506 10.5178 9.09687C10.4432 8.94868 9.86442 7.48347 9.59957 6.89771Z" fill="white"/>
</g>
<defs>
<linearGradient id="paint0_linear_1565_158" x1="1156.56" y1="2309.67" x2="1156.56" y2="0.414062" gradientUnits="userSpaceOnUse">
<stop stop-color="#1FAF38"/>
<stop offset="1" stop-color="#60D669"/>
</linearGradient>
<linearGradient id="paint1_linear_1565_158" x1="1197.6" y1="2392.07" x2="1197.6" y2="0" gradientUnits="userSpaceOnUse">
<stop stop-color="#F9F9F9"/>
<stop offset="1" stop-color="white"/>
</linearGradient>
<clipPath id="clip0_1565_158">
<rect width="23.9294" height="24" fill="white" transform="translate(0.830078)"/>
</clipPath>
</defs>
</svg>
